HIERARCHY
ROOT Hips
{
    OFFSET 0.000000 0.000000 0.000000
    CHANNELS 6 Xposition Yposition Zposition Zrotation Xrotation Yrotation
    JOINT Spine
    {
        OFFSET -0.000000 7.498351 0.000000
        CHANNELS 3 Zrotation Xrotation Yrotation
        JOINT Spine1
        {
            OFFSET -0.000000 18.429123 0.000000
            CHANNELS 3 Zrotation Xrotation Yrotation
            JOINT Neck
            {
                OFFSET -0.000000 20.257988 0.000000
                CHANNELS 3 Zrotation Xrotation Yrotation
                JOINT Head
                {
                    OFFSET -0.000000 14.173712 1.828866
                    CHANNELS 3 Zrotation Xrotation Yrotation
                    End Site
                    {
                        OFFSET -0.000000 18.288660 0.000000
                    }
                }
            }
            JOINT LeftShoulder
            {
                OFFSET 3.660798 16.016108 -0.192223
                CHANNELS 3 Zrotation Xrotation Yrotation
                JOINT LeftArm
                {
                    OFFSET 12.864595 0.000000 0.000000
                    CHANNELS 3 Zrotation Xrotation Yrotation
                    JOINT LeftForeArm
                    {
                        OFFSET 24.846529 0.000000 0.000000
                        CHANNELS 3 Zrotation Xrotation Yrotation
                        JOINT LeftHand
                        {
                            OFFSET 23.064747 0.000000 0.000000
                            CHANNELS 3 Zrotation Xrotation Yrotation
                            End Site
                            {
                                OFFSET 13.716496 0.000000 0.000000
                            }
                        }
                    }
                }
            }
            JOINT RightShoulder
            {
                OFFSET -3.651463 16.016108 -0.192223
                CHANNELS 3 Zrotation Xrotation Yrotation
                JOINT RightArm
                {
                    OFFSET -12.864595 0.000000 0.000000
                    CHANNELS 3 Zrotation Xrotation Yrotation
                    JOINT RightForeArm
                    {
                        OFFSET -24.846529 0.000000 0.000000
                        CHANNELS 3 Zrotation Xrotation Yrotation
                        JOINT RightHand
                        {
                            OFFSET -23.064747 0.000000 0.000000
                            CHANNELS 3 Zrotation Xrotation Yrotation
                            End Site
                            {
                                OFFSET -13.716496 0.000000 0.000000
                            }
                        }
                    }
                }
            }
        }
    }
    JOINT LeftUpLeg
    {
        OFFSET 9.144330 0.000000 0.000000
        CHANNELS 3 Zrotation Xrotation Yrotation
        JOINT LeftLeg
        {
            OFFSET -0.000000 -44.842400 0.000000
            CHANNELS 3 Zrotation Xrotation Yrotation
            JOINT LeftFoot
            {
                OFFSET -0.000000 -38.226624 0.000000
                CHANNELS 3 Zrotation Xrotation Yrotation
                JOINT LeftToeBase
                {
                    OFFSET -0.000000 -5.943814 13.716496
                    CHANNELS 3 Zrotation Xrotation Yrotation
                    End Site
                    {
                        OFFSET -0.000000 0.000000 3.657732
                    }
                }
            }
        }
    }
    JOINT RightUpLeg
    {
        OFFSET -9.144330 0.000000 0.000000
        CHANNELS 3 Zrotation Xrotation Yrotation
        JOINT RightLeg
        {
            OFFSET -0.000000 -44.842400 0.000000
            CHANNELS 3 Zrotation Xrotation Yrotation
            JOINT RightFoot
            {
                OFFSET -0.000000 -38.226624 0.000000
                CHANNELS 3 Zrotation Xrotation Yrotation
                JOINT RightToeBase
                {
                    OFFSET -0.000000 -5.943814 13.716496
                    CHANNELS 3 Zrotation Xrotation Yrotation
                    End Site
                    {
                        OFFSET -0.000000 0.000000 3.657732
                    }
                }
            }
        }
    }
}
MOTION
Frames:    11
Frame Time:    0.002778
225.116318    84.445313    -23.008495    -0.216928    0.203285    -162.283264    1.444002    3.548629    0.205083    0.629611    1.657634    0.071110    1.437400    15.567513    21.218630    -16.166420    -2.542760    23.889610    9.624153    -3.197754    2.484314    -72.458122    10.751881    19.353792    7.866961    -9.770994    -96.093132    12.500986    -1.232739    -1.860830    -14.069528    1.757079    3.318810    74.069916    30.202814    -12.043231    13.589344    14.477765    16.580618    17.961142    11.823987    -4.682302    1.250847    -12.524183    -3.935842    -2.387905    56.703102    -16.893202    -10.583063    -21.318901    -6.206158    0.000000    0.000000    0.000000    -9.125993    -5.270868    8.290901    8.897239    25.007889    6.030763    0.193617    -27.605099    -10.620474    0.000000    0.000000    0.000000    
225.151611    84.447571    -23.070314    -0.269536    0.189240    -161.875519    1.444408    3.553050    0.149526    0.596070    1.701626    0.053237    1.462415    15.467547    21.155258    -16.068146    -2.632245    23.808273    9.609836    -3.199939    2.472530    -72.411217    10.718719    19.457066    7.713941    -9.482489    -95.959984    12.736773    -1.146067    -1.952072    -14.058182    1.689614    3.295451    73.944992    30.199652    -11.949629    13.566884    14.572589    16.497252    17.952286    11.932782    -4.685774    1.198514    -12.866449    -3.779216    -2.713617    57.399395    -16.413475    -11.016805    -21.220728    -6.087108    0.000000    0.000000    0.000000    -9.166135    -5.083775    8.221921    9.001818    24.900406    5.858085    0.029979    -27.645781    -10.817039    0.000000    0.000000    0.000000    
225.182251    84.453560    -23.131470    -0.334230    0.176853    -161.454910    1.405315    3.565909    0.090429    0.610828    1.725023    0.032431    1.512335    15.499476    21.043062    -16.089575    -2.876645    23.675755    9.660483    -3.164950    2.460125    -72.588013    10.736735    19.500776    7.794798    -9.392975    -95.667068    12.767625    -1.023169    -2.070285    -13.982737    1.679074    3.311415    73.809395    30.439529    -11.852011    13.424613    14.541329    16.473066    18.064575    11.925832    -4.647061    1.075056    -13.233173    -3.658919    -3.131785    58.026695    -15.377016    -11.772970    -21.014299    -6.410162    0.000000    0.000000    0.000000    -9.227968    -4.882898    8.127898    9.113919    24.771566    5.658438    -0.119311    -27.672110    -10.970886    0.000000    0.000000    0.000000    
225.220993    84.453094    -23.189196    -0.378296    0.138464    -161.060562    1.388157    3.537915    0.065485    0.598241    1.766801    0.025550    1.551677    15.398656    20.987808    -15.971951    -2.915526    23.611876    9.676281    -3.133317    2.426464    -72.466003    10.598907    19.528755    7.479421    -8.883714    -95.552406    13.042060    -0.879419    -2.065009    -13.944405    1.622510    3.346893    73.746346    30.401348    -11.879657    13.238373    14.578431    16.524557    18.275261    11.942102    -4.858449    1.041092    -13.606403    -3.568026    -3.754375    58.716034    -14.413210    -12.114123    -20.891802    -6.400180    0.000000    0.000000    0.000000    -9.266509    -4.732267    8.060501    9.222548    24.663448    5.413842    -0.194092    -27.715973    -11.040321    0.000000    0.000000    0.000000    
225.259369    84.458298    -23.250389    -0.410651    0.118165    -160.639679    1.376029    3.547625    0.016518    0.611309    1.776159    0.007360    1.641098    15.338212    20.900080    -16.005028    -2.979389    23.539713    9.658621    -3.108888    2.386214    -72.490433    10.629825    19.590117    7.574904    -8.697155    -95.257416    13.290138    -0.655518    -2.264737    -13.906288    1.580919    3.350710    73.671410    30.542263    -11.819783    13.191933    14.440862    16.441126    18.120108    11.825241    -4.862669    0.988773    -13.939237    -3.471263    -4.209182    59.324512    -13.562916    -12.423618    -20.802404    -6.425931    0.000000    0.000000    0.000000    -9.315537    -4.569834    8.145228    9.470552    24.554220    5.096178    -0.460031    -27.736570    -11.326406    0.000000    0.000000    0.000000    
225.289703    84.464378    -23.318949    -0.453616    0.139216    -160.215607    1.388759    3.598300    -0.035475    0.586123    1.790500    -0.008120    1.771663    15.236538    20.794107    -16.046955    -2.983293    23.468283    9.666911    -3.099957    2.405354    -72.583824    10.739887    19.610394    7.656743    -8.622157    -94.975677    13.324804    -0.527716    -2.230376    -13.842443    1.535319    3.281779    73.458885    30.552292    -11.727949    13.197517    14.533767    16.390432    17.485928    12.093651    -3.917000    0.966803    -14.254231    -3.393863    -4.838537    59.988007    -12.479012    -12.543626    -20.746441    -6.503626    0.000000    0.000000    0.000000    -9.343101    -4.327977    8.032418    9.568385    24.417782    4.910846    -0.542993    -27.760569    -11.421810    0.000000    0.000000    0.000000    
225.325470    84.471497    -23.372469    -0.477021    0.112092    -159.825760    1.396743    3.629970    -0.033655    0.561904    1.765429    -0.004809    1.913182    15.207422    20.663521    -16.135981    -3.094171    23.365120    9.691298    -3.116891    2.345497    -72.565971    10.693251    19.694429    7.495800    -8.274021    -94.750290    13.464299    -0.406374    -2.386286    -13.769681    1.523620    3.243611    73.257576    30.482533    -11.633508    13.073494    14.693913    16.393188    18.291279    12.081504    -4.955719    0.972146    -14.581659    -3.386756    -5.702475    60.514698    -11.183606    -12.463187    -20.754850    -6.522477    0.000000    0.000000    0.000000    -9.364371    -4.172728    7.895314    9.657421    24.258625    4.734884    -0.644668    -27.753754    -11.541755    0.000000    0.000000    0.000000    
225.359207    84.477715    -23.442205    -0.519207    0.139068    -159.370667    1.411988    3.692154    -0.115222    0.562770    1.752697    -0.036092    1.874251    15.158895    20.612297    -16.003317    -3.214962    23.272591    9.675169    -3.093298    2.357915    -72.520668    10.697531    19.732777    7.417165    -7.949014    -94.492058    13.531247    -0.207020    -2.430007    -13.741386    1.486134    3.230685    73.037888    30.283161    -11.563565    13.136866    14.850826    16.350151    18.344677    12.202124    -5.156223    0.954116    -14.880753    -3.406558    -6.430122    61.133347    -10.358040    -12.358854    -20.839712    -6.202507    0.000000    0.000000    0.000000    -9.380462    -3.908506    7.708648    9.727711    24.092642    4.525775    -0.713965    -27.778130    -11.595039    0.000000    0.000000    0.000000    
225.382095    84.480789    -23.510025    -0.565086    0.128582    -158.940964    1.412792    3.660884    -0.192089    0.526639    1.828442    -0.060808    1.949068    15.086680    20.539478    -15.973345    -3.283456    23.204552    9.739085    -2.998164    2.337507    -72.689476    10.784951    19.708103    7.536611    -7.920170    -94.157822    13.479033    -0.099701    -2.478559    -13.636615    1.433148    3.282176    72.903076    30.398441    -11.521503    13.056669    14.736693    16.299990    18.182823    12.114461    -5.134599    0.904684    -15.181271    -3.364796    -7.077526    61.655746    -9.417925    -12.160182    -20.943100    -6.101554    0.000000    0.000000    0.000000    -9.424978    -3.691348    7.465470    9.785851    23.960131    4.408055    -0.784266    -27.813084    -11.673321    0.000000    0.000000    0.000000    
225.415283    84.487617    -23.557945    -0.565534    0.077669    -158.576172    1.455466    3.658737    -0.181698    0.484748    1.803340    -0.055615    1.942957    15.040250    20.432720    -15.851007    -3.406876    23.065075    9.716580    -3.020902    2.282706    -72.637024    10.777875    19.795761    7.517219    -7.614515    -93.884308    13.574979    0.134679    -2.586690    -13.617435    1.391470    3.278916    72.689331    30.049477    -11.482990    13.066092    15.039611    16.312275    18.172197    12.401424    -5.244097    0.935132    -15.578954    -3.428655    -8.236030    62.208298    -7.835016    -12.138427    -20.964306    -6.124292    0.000000    0.000000    0.000000    -9.452971    -3.575802    7.365092    9.930914    23.841053    4.294711    -0.935195    -27.809940    -11.868032    0.000000    0.000000    0.000000    
225.447662    84.495163    -23.620466    -0.545601    0.063009    -158.168167    1.530620    3.680621    -0.209074    0.430322    1.763714    -0.062799    2.004593    14.986979    20.330374    -15.800008    -3.479767    22.961334    9.741466    -2.898997    2.315984    -72.628510    10.803321    19.686129    7.482713    -7.344944    -93.582687    13.605525    0.317204    -2.663258    -13.544376    1.372857    3.196220    72.582092    30.254690    -11.392476    12.951190    14.966763    16.207710    18.188400    12.377744    -5.099735    0.962668    -15.911699    -3.320768    -8.790609    62.725208    -7.282167    -11.804130    -21.203045    -5.759843    0.000000    0.000000    0.000000    -9.407029    -3.409362    7.079514    9.918604    23.729269    4.156100    -0.941425    -27.816519    -11.833850    0.000000    0.000000    0.000000    
